<?xml version="1.0" standalone="no"?>
<!DOCTYPE svg PUBLIC "-//W3C//DTD SVG 20010904//EN"
 "http://www.w3.org/TR/2001/REC-SVG-20010904/DTD/svg10.dtd">
<svg version="1.0" xmlns="http://www.w3.org/2000/svg"
 width="2000.000000pt" height="2000.000000pt" viewBox="0 0 2000.000000 2000.000000"
 preserveAspectRatio="xMidYMid meet">

<g transform="translate(0.000000,2000.000000) scale(0.100000,-0.100000)"
fill="#000000" stroke="none">
<path d="M4355 16944 c-27 -2 -135 -8 -240 -14 -230 -13 -466 -34 -680 -61
-177 -22 -490 -74 -522 -86 -19 -8 -16 -16 59 -153 126 -228 343 -663 460
-920 927 -2048 1304 -4191 1088 -6180 -179 -1635 -688 -3229 -1520 -4748 -125
-228 -128 -234 -109 -227 30 11 513 107 680 135 196 33 575 83 779 102 177 16
887 16 1080 0 306 -26 633 -66 915 -113 184 -30 622 -115 651 -126 10 -4 -9
42 -50 125 -205 408 -465 1017 -671 1567 -747 1994 -1308 4507 -1469 6585 -33
418 -40 601 -40 1035 -1 463 7 615 45 904 64 493 192 794 371 871 48 21 63 22
163 17 343 -19 708 -221 1096 -607 247 -246 429 -479 663 -850 254 -400 378
-692 426 -1002 18 -113 8 -362 -18 -461 -54 -198 -165 -381 -337 -552 -176
-177 -348 -301 -792 -573 -144 -88 -302 -187 -350 -220 -460 -310 -656 -599
-623 -917 20 -195 128 -312 336 -365 158 -41 286 -26 684 78 245 63 260 66
375 67 94 0 131 -4 171 -19 278 -103 470 -514 553 -1186 29 -236 39 -367 52
-690 37 -934 -75 -2451 -262 -3553 -22 -130 -39 -241 -37 -245 2 -5 84 14 183
40 313 84 689 152 1050 190 182 18 802 16 992 -5 338 -36 656 -96 988 -186 99
-26 181 -48 182 -47 5 4 -285 1172 -358 1441 -418 1546 -839 2641 -1325 3455
-198 330 -365 551 -589 776 -444 447 -871 607 -1380 519 -162 -28 -335 -74
-660 -175 -365 -113 -451 -134 -543 -128 -53 3 -68 8 -83 27 -50 61 -6 168
119 291 196 192 539 387 1392 788 664 313 666 314 925 450 310 162 487 265
715 417 575 382 924 776 1065 1199 60 180 70 248 69 466 -2 279 -37 501 -115
734 -42 123 -164 371 -238 481 -494 742 -1485 1253 -2918 1504 -259 46 -423
67 -798 106 -263 27 -517 37 -1010 40 -297 1 -562 1 -590 -1z"/>
<path d="M13705 16935 c-813 -115 -1496 -586 -2042 -1405 -622 -934 -1020
-2303 -1128 -3885 -43 -636 -35 -1443 21 -2110 199 -2369 1017 -4128 2249
-4836 281 -161 625 -273 950 -309 118 -13 391 -13 513 1 486 52 942 283 1308
660 872 900 1398 2690 1514 5154 12 273 25 855 18 855 -3 0 -62 -29 -131 -66
-347 -180 -702 -282 -1187 -341 -111 -13 -225 -18 -490 -18 -349 0 -479 8
-774 46 -82 10 -151 17 -152 16 -4 -4 319 -664 589 -1204 641 -1279 936 -1969
1077 -2518 119 -463 95 -730 -84 -909 -115 -116 -215 -145 -434 -127 -442 36
-853 242 -1255 630 -351 339 -674 790 -985 1376 -730 1377 -1309 3465 -1462
5275 -88 1045 -27 1797 179 2195 51 99 148 195 226 225 54 20 72 22 180 17
656 -29 1366 -696 2045 -1922 165 -298 383 -751 525 -1091 39 -94 77 -180 85
-191 15 -20 44 -8 970 398 886 388 955 420 953 441 -7 70 -59 383 -84 508
-174 843 -519 1628 -955 2175 -110 137 -338 368 -465 469 -310 246 -657 403
-1058 478 -143 26 -567 34 -716 13z"/>
</g>
</svg>
