<?xml version="1.0" standalone="no"?>
<!DOCTYPE svg PUBLIC "-//W3C//DTD SVG 20010904//EN"
 "http://www.w3.org/TR/2001/REC-SVG-20010904/DTD/svg10.dtd">
<svg version="1.0" xmlns="http://www.w3.org/2000/svg"
 width="2000.000000pt" height="2000.000000pt" viewBox="0 0 2000.000000 2000.000000"
 preserveAspectRatio="xMidYMid meet">

<g transform="translate(0.000000,2000.000000) scale(0.100000,-0.100000)"
fill="#000000" stroke="none">
<path d="M4605 16134 c-178 -18 -345 -45 -345 -54 0 -5 33 -71 73 -147 425
-812 634 -1693 596 -2508 -33 -704 -223 -1389 -575 -2074 -91 -177 -102 -203
-82 -197 77 21 415 76 533 87 165 14 506 6 670 -15 106 -14 366 -59 413 -72
28 -8 28 -2 -2 49 -36 61 -144 307 -219 497 -332 837 -585 1954 -648 2858 -15
210 -6 667 14 774 30 152 72 246 128 286 29 20 115 18 183 -4 192 -62 385
-235 569 -509 156 -233 223 -412 215 -571 -4 -71 -10 -94 -43 -160 -66 -134
-152 -207 -498 -425 -142 -88 -242 -178 -281 -249 -34 -62 -46 -162 -26 -210
19 -46 72 -87 130 -99 60 -13 95 -9 255 31 154 38 210 39 268 5 199 -117 263
-679 181 -1587 -16 -180 -53 -476 -78 -613 -13 -78 -13 -79 8 -73 204 59 381
86 601 93 229 7 403 -11 605 -61 74 -18 137 -32 139 -30 7 6 -127 537 -194
769 -121 417 -216 673 -360 970 -120 247 -227 408 -359 540 -157 156 -281 216
-446 217 -103 1 -162 -11 -350 -68 -177 -55 -228 -67 -256 -60 -51 13 -33 79
38 141 70 62 288 187 485 279 452 212 552 264 733 384 81 53 148 108 226 186
95 96 117 124 156 203 61 120 72 178 65 328 -9 180 -49 305 -145 446 -62 92
-192 218 -297 288 -289 191 -732 317 -1270 361 -169 14 -655 10 -810 -6z"/>
<path d="M8365 15123 c-510 -71 -896 -652 -1006 -1512 -32 -258 -30 -699 6
-976 121 -939 561 -1555 1110 -1555 219 1 418 91 600 275 262 263 442 690 519
1230 l22 160 8 -70 c12 -120 46 -304 81 -445 172 -685 544 -1117 987 -1147 84
-6 90 -5 150 25 35 17 117 72 183 122 177 134 217 152 236 104 9 -25 6 -52
-17 -156 l-6 -28 312 0 312 0 -6 88 c-9 116 -47 377 -101 702 -104 623 -137
909 -155 1346 -25 598 46 1152 209 1632 l49 142 -639 0 c-352 0 -639 -2 -639
-4 0 -3 23 -41 51 -86 368 -595 734 -1746 824 -2597 20 -184 19 -455 0 -569
-27 -153 -80 -241 -158 -262 -44 -12 -143 2 -216 32 -351 142 -697 718 -925
1537 -101 362 -131 576 -123 884 3 162 10 234 26 315 46 222 143 459 265 654
31 48 56 90 56 92 0 2 -170 4 -378 4 l-378 0 -26 -79 -26 -80 138 -3 c197 -4
206 -16 150 -190 -117 -368 -210 -800 -236 -1088 -4 -47 -9 -80 -10 -75 -2 6
-13 75 -24 155 -72 500 -246 908 -494 1156 -148 148 -287 226 -457 259 -75 14
-203 18 -274 8z m-312 -464 c138 -26 343 -189 478 -379 305 -430 557 -1139
650 -1835 29 -215 31 -542 5 -660 -32 -143 -83 -225 -153 -244 -39 -11 -131 0
-203 24 -104 34 -268 168 -381 310 -305 383 -583 1134 -691 1865 -18 127 -22
199 -23 395 0 247 5 290 44 396 27 71 66 117 116 133 39 14 66 13 158 -5z"/>
<path d="M12813 15120 c-67 -12 -203 -62 -262 -96 -478 -278 -750 -950 -751
-1853 0 -575 95 -1055 286 -1435 157 -315 377 -533 621 -617 93 -32 105 -33
243 -33 137 -1 150 1 231 30 111 40 197 89 283 161 107 90 139 112 173 119 27
5 34 2 50 -22 54 -83 -28 -559 -147 -848 -89 -215 -188 -365 -328 -497 -103
-97 -183 -140 -271 -146 -86 -6 -126 15 -161 83 -48 93 -29 247 57 458 37 91
115 246 165 326 7 10 10 21 8 23 -12 11 -866 247 -894 247 -32 0 49 -367 121
-548 77 -196 168 -338 293 -455 170 -161 344 -234 586 -244 147 -6 228 4 336
44 418 155 698 724 675 1373 -8 218 -28 346 -152 965 -164 818 -198 1054 -199
1400 0 421 80 744 363 1453 l21 52 -265 0 -265 0 0 -127 c0 -140 -15 -294 -31
-324 -26 -49 -62 -15 -184 171 -90 137 -205 252 -305 304 -68 36 -83 40 -160
42 -47 2 -108 -1 -137 -6z m-273 -467 c323 -87 663 -581 898 -1303 143 -440
220 -852 229 -1225 7 -294 -23 -457 -100 -539 -42 -44 -85 -55 -172 -44 -390
51 -791 658 -1044 1583 -101 367 -153 712 -154 1015 -1 280 28 413 108 490 52
50 114 56 235 23z"/>
<path d="M15060 15111 c-498 -108 -845 -664 -946 -1511 -32 -277 -28 -687 12
-989 77 -594 300 -1090 600 -1330 335 -270 743 -268 1061 7 271 234 483 705
564 1257 10 71 19 145 19 163 l0 32 -196 0 c-181 0 -195 -1 -190 -17 14 -52
29 -305 29 -498 0 -375 -50 -590 -155 -668 -20 -15 -41 -19 -86 -18 -213 5
-449 193 -652 520 -67 108 -174 313 -199 381 -95 257 -58 476 107 645 208 215
662 359 1200 382 l142 6 0 31 c0 61 -31 279 -56 399 -137 646 -459 1092 -869
1203 -94 25 -283 28 -385 5z m-225 -458 c280 -88 543 -405 771 -931 31 -73 55
-134 53 -136 -2 -1 -47 -17 -99 -35 -320 -110 -656 -335 -800 -535 -19 -25
-37 -46 -40 -46 -18 0 -121 408 -164 645 -60 328 -77 628 -47 795 43 238 131
304 326 243z"/>
<path d="M3690 9430 c-462 -98 -834 -532 -1040 -1212 -194 -640 -223 -1535
-74 -2283 148 -743 491 -1286 933 -1475 120 -52 198 -70 328 -77 479 -26 830
277 1056 907 47 132 115 385 142 535 9 50 19 97 22 105 3 8 14 -39 24 -104 76
-489 264 -924 506 -1170 122 -124 243 -200 393 -248 108 -33 302 -33 410 0
123 39 227 97 326 182 25 22 58 47 74 55 26 13 30 13 46 -2 14 -15 16 -30 10
-105 l-6 -88 784 0 784 0 -112 223 c-327 652 -524 1267 -586 1837 -37 336 -27
796 26 1155 26 175 63 295 96 307 22 9 147 -12 204 -33 125 -47 280 -179 396
-339 70 -97 150 -232 229 -392 60 -121 79 -144 79 -95 0 41 88 411 144 606 54
187 62 209 69 200 4 -4 109 -637 132 -794 110 -756 117 -1405 20 -1965 -37
-213 -118 -505 -190 -692 -7 -17 28 -18 639 -18 l647 0 -29 43 c-53 77 -155
261 -213 382 -301 634 -545 1483 -636 2210 -24 196 -25 551 -1 657 48 214 142
276 303 198 159 -77 355 -324 530 -670 104 -206 174 -378 271 -664 l84 -248 6
-197 c18 -549 -70 -1139 -239 -1613 l-35 -98 645 0 645 0 -18 28 c-103 154
-266 477 -362 717 -251 627 -433 1335 -503 1960 -19 166 -16 482 5 580 35 163
93 237 186 237 234 0 559 -429 814 -1074 255 -647 347 -1156 285 -1573 -37
-250 -145 -527 -304 -778 -30 -49 -55 -90 -55 -93 0 -2 170 -4 379 -4 l378 0
31 80 30 80 -139 0 c-137 0 -140 1 -166 26 -32 32 -31 43 43 291 83 282 131
482 169 698 26 151 25 150 51 31 106 -494 303 -870 567 -1083 90 -72 208 -135
313 -165 66 -19 102 -23 219 -22 130 0 147 2 227 31 131 46 219 103 339 223
119 119 191 220 279 397 60 121 145 357 177 495 10 43 20 78 23 78 3 0 13 -51
23 -113 28 -171 90 -402 145 -536 166 -406 410 -598 735 -578 441 26 799 506
951 1273 23 118 56 334 56 369 0 13 -33 15 -215 15 -118 0 -215 -1 -215 -3 0
-2 11 -73 24 -158 38 -244 49 -401 43 -612 -6 -205 -18 -277 -62 -353 -33 -57
-68 -78 -129 -76 -144 3 -253 59 -397 202 -176 176 -317 419 -476 820 -165
418 -233 700 -233 971 0 159 16 257 61 364 137 329 535 508 1183 532 l179 6
-6 -25 c-30 -116 -26 -282 8 -378 80 -228 243 -397 738 -767 310 -231 447
-345 573 -475 174 -180 268 -332 316 -508 19 -73 23 -108 22 -245 0 -177 -15
-267 -59 -363 -14 -31 -38 -69 -53 -85 -133 -139 -524 25 -901 379 -111 104
-221 230 -284 326 -29 43 -54 78 -57 78 -3 0 -16 -53 -29 -117 -71 -373 -160
-717 -251 -977 -43 -122 -43 -135 0 -136 8 0 101 -9 205 -20 457 -46 939 -51
1090 -11 430 115 736 522 739 981 1 145 -14 211 -74 336 -57 118 -145 232
-294 379 -145 144 -251 232 -651 538 -319 243 -480 380 -573 485 -152 173
-202 279 -203 432 -1 157 36 292 98 361 50 55 89 63 210 45 332 -50 747 -256
1138 -565 l100 -79 9 42 c72 346 140 604 225 852 l48 141 -131 7 c-72 4 -210
15 -306 26 -517 56 -710 54 -932 -11 -257 -75 -477 -229 -609 -426 l-36 -54
-7 143 c-4 79 -9 183 -13 231 l-6 88 -41 -6 c-88 -14 -286 -70 -391 -110 -353
-136 -677 -368 -909 -652 -64 -79 -98 -101 -109 -70 -8 21 16 65 183 353 333
570 441 825 443 1044 1 79 -3 104 -21 145 -41 89 -105 139 -222 172 -53 14
-100 17 -250 16 -186 -1 -408 -18 -423 -33 -5 -4 5 -34 21 -66 36 -71 86 -223
106 -319 39 -185 45 -476 16 -730 -15 -133 -111 -838 -117 -855 -3 -8 -20 40
-38 106 -136 491 -376 841 -680 989 -135 66 -196 79 -360 79 -115 0 -154 -3
-218 -22 -285 -82 -516 -303 -683 -656 -59 -125 -136 -359 -169 -516 -26 -126
-35 -153 -35 -108 0 42 -86 369 -125 473 -96 257 -217 457 -370 610 -117 116
-209 174 -329 205 -199 51 -399 5 -686 -155 -139 -77 -180 -95 -218 -95 -29 0
-40 7 -177 115 -128 101 -260 155 -380 155 -71 0 -145 -38 -300 -155 -154
-116 -187 -134 -210 -115 -22 18 -19 91 9 178 l7 22 -315 0 -316 0 0 -62 c0
-57 -1 -60 -17 -46 -37 32 -160 102 -223 125 -134 51 -286 66 -356 37 -41 -17
-147 -86 -276 -179 -44 -32 -92 -59 -112 -62 -32 -5 -37 -3 -46 23 -8 21 -7
46 3 96 l13 68 -508 0 -508 0 -4 -22 c-2 -13 -9 -104 -14 -203 -10 -183 -20
-231 -47 -241 -23 -9 -46 16 -137 150 -108 158 -236 288 -337 340 -103 54
-176 59 -298 21 -408 -126 -732 -503 -887 -1032 -28 -94 -76 -301 -76 -326 0
-8 -149 -68 -216 -87 -141 -41 -262 -54 -474 -54 -113 0 -236 6 -275 12 -38 6
-70 10 -71 9 -2 -1 87 -185 197 -407 362 -731 465 -984 499 -1228 25 -179 -57
-287 -215 -284 -539 11 -1061 783 -1359 2012 -97 396 -154 788 -164 1125 -13
406 23 634 115 736 43 47 85 60 161 49 196 -29 379 -166 579 -434 133 -178
299 -477 413 -744 30 -71 57 -121 64 -119 27 11 752 329 757 333 19 11 -55
344 -118 529 -174 508 -472 835 -847 930 -124 31 -304 34 -436 5z m3600 -1432
c0 -71 41 -356 115 -808 82 -497 109 -706 125 -935 25 -380 -3 -804 -80 -1181
-28 -141 -97 -403 -99 -377 -3 50 -81 470 -131 713 -168 804 -204 1063 -205
1440 0 223 3 271 24 385 31 177 89 400 151 580 29 83 59 171 68 198 18 52 32
46 32 -15z m-1535 -39 c65 -13 191 -81 263 -144 394 -342 745 -1191 868 -2100
24 -179 25 -529 1 -634 -32 -139 -85 -221 -154 -240 -45 -13 -148 3 -222 33
-201 82 -426 340 -605 695 -410 814 -613 2071 -379 2349 48 57 98 66 228 41z
m7280 -10 c114 -35 262 -141 367 -264 132 -154 283 -412 402 -686 25 -59 46
-109 46 -112 0 -3 -14 -8 -30 -12 -53 -12 -223 -81 -331 -135 -212 -107 -413
-260 -519 -398 -30 -39 -58 -71 -62 -71 -16 -2 -107 342 -152 574 -57 294 -70
409 -70 625 0 224 12 307 57 396 58 113 128 133 292 83z m1421 -1544 l0 -365
-144 0 -144 0 6 -37 c29 -187 35 -603 11 -787 -25 -192 -81 -332 -147 -367
-13 -7 -47 -12 -77 -11 -252 7 -513 246 -748 687 -116 215 -154 335 -155 477
-1 138 39 245 132 357 113 136 341 255 625 325 162 40 446 81 590 85 l50 1 1
-365z"/>
</g>
</svg>
